<svg width="20" height="20" viewBox="0 0 20 20" fill="none" xmlns="http://www.w3.org/2000/svg">
<path d="M10.0666 2.92703V0.86316C10.0666 0.639919 9.82506 0.500477 9.63167 0.611991L3.24204 4.30112C3.04876 4.41274 3.04876 4.69175 3.24204 4.80337L6.55459 6.71584C7.4208 5.81499 8.63743 5.25347 9.98583 5.25347C12.6153 5.25347 14.7467 7.38492 14.7467 10.0143C14.7467 10.4915 14.6757 10.952 14.5451 11.3866L16.4984 12.5314C16.8218 11.7259 17.0001 10.8463 17.0001 9.92513C17.0001 6.08152 13.9018 2.96285 10.0666 2.92703Z" fill="white"/>
<path d="M16.5555 15.1965L13.3729 13.3592C12.5098 14.2332 11.3114 14.7752 9.98594 14.7752C7.35651 14.7752 5.22502 12.6438 5.22502 10.0143C5.22502 9.7203 5.25304 9.43289 5.30411 9.15357L3.27872 7.96646C3.09781 8.58811 3.00049 9.24526 3.00049 9.92521C3.00049 13.7007 5.99002 16.7763 9.73071 16.9182V19.1367C9.73071 19.36 9.97251 19.4994 10.1657 19.3878L16.5555 15.6988C16.7486 15.5872 16.7486 15.3082 16.5555 15.1965Z" fill="white"/>
<path d="M7.08945 10.0144C7.08945 11.614 8.38615 12.9108 9.98594 12.9108C11.5856 12.9108 12.8824 11.614 12.8824 10.0144C12.8824 8.41467 11.5856 7.11787 9.98594 7.11787C8.38615 7.11787 7.08945 8.41467 7.08945 10.0144Z" fill="white"/>
<path d="M7.08945 10.0144C7.08945 11.614 8.38615 12.9108 9.98594 12.9108C11.5856 12.9108 12.8824 11.614 12.8824 10.0144C12.8824 8.41467 11.5856 7.11787 9.98594 7.11787C8.38615 7.11787 7.08945 8.41467 7.08945 10.0144Z" fill="white"/>
</svg>
