<svg width="20" height="20" viewBox="0 0 20 20" fill="none" xmlns="http://www.w3.org/2000/svg">
<path d="M10.0565 3.99786V2.24644C10.0565 2.057 9.85146 1.93867 9.68735 2.0333L4.26504 5.16393C4.10102 5.25866 4.10102 5.49542 4.26504 5.59014L7.07611 7.21309C7.81118 6.44861 8.84363 5.97211 9.98789 5.97211C12.2193 5.97211 14.028 7.78087 14.028 10.0122C14.028 10.4172 13.9678 10.8079 13.8569 11.1768L15.5145 12.1482C15.7889 11.4647 15.9403 10.7183 15.9403 9.93652C15.9403 6.67479 13.3111 4.02826 10.0565 3.99786Z" fill="white"/>
<path d="M15.5629 14.4099L12.8622 12.8507C12.1298 13.5924 11.1128 14.0524 9.98798 14.0524C7.75662 14.0524 5.94782 12.2436 5.94782 10.0122C5.94782 9.76271 5.9716 9.5188 6.01493 9.28177L4.29617 8.27438C4.14265 8.80191 4.06006 9.35958 4.06006 9.9366C4.06006 13.1405 6.59701 15.7505 9.7714 15.8709V17.7536C9.7714 17.943 9.97658 18.0614 10.1405 17.9667L15.5629 14.8361C15.7269 14.7414 15.7269 14.5046 15.5629 14.4099Z" fill="white"/>
<path d="M7.53 10.0122C7.53 11.3697 8.63039 12.4702 9.98798 12.4702C11.3455 12.4702 12.446 11.3697 12.446 10.0122C12.446 8.65473 11.3455 7.55425 9.98798 7.55425C8.63039 7.55425 7.53 8.65473 7.53 10.0122Z" fill="white"/>
<path d="M7.53 10.0122C7.53 11.3697 8.63039 12.4702 9.98798 12.4702C11.3455 12.4702 12.446 11.3697 12.446 10.0122C12.446 8.65473 11.3455 7.55425 9.98798 7.55425C8.63039 7.55425 7.53 8.65473 7.53 10.0122Z" fill="white"/>
</svg>
